<!-- icon666.com - MILLIONS OF FREE VECTOR ICONS --><svg version="1.1" id="Layer_1" xmlns="http://www.w3.org/2000/svg" xmlns:xlink="http://www.w3.org/1999/xlink" x="0px" y="0px" viewBox="0 0 463.4 463.4" style="enable-background:new 0 0 463.4 463.4;" xml:space="preserve"><g transform="translate(0 -540.36)"><g><g><path d="M401.028,668.96L401.028,668.96c-0.1-0.1-0.1-0.2-0.2-0.3c-3.2-4.8-6.9-9.6-10.4-14.2c-10-13.2-20.4-26.8-22.3-41.3 c12.3-0.8,22.5-11.3,22.5-23.6c0-12.8-10.9-23.7-23.9-23.7h-88c-9.2-15.8-26.9-25.5-47.1-25.5h-0.1c-20.1,0-37.8,9.9-46.4,25.5 h-88.5c-13,0-23.9,10.8-23.9,23.7c0,12.4,10.3,23,22.7,23.6c-3.3,14.6-14.5,30.2-25.4,45.4c-2.4,3.3-4.8,6.7-7.1,10 c-0.1,0.1-0.2,0.3-0.3,0.4c-5.1,8.4-7.4,18.6-6.1,28v231.9c-1.3,23.8,8.6,46.9,26.7,62c0.3,0.2,0.6,0.4,0.9,0.6 c11.9,7.3,24.7,11.1,38,11.1l219.6,1.2c11.6,0,22.9-2.9,32.7-8.4c0.2-0.1,0.5-0.3,0.7-0.5c20.4-14.8,32.1-38.7,32.1-65.8v-231.4 C407.128,689.26,406.028,677.36,401.028,668.96z M231.528,555.36h0.1c10.8,0,20.9,3.9,28,10.5h-55.8 C210.528,559.26,220.428,555.36,231.528,555.36z M87.728,589.56c0-4.5,4.2-8.7,8.9-8.7h270c4.7,0,8.9,4.1,8.9,8.7 c0,4.6-4.2,8.7-8.9,8.7h-6.1h-257.5h-6.4C91.928,598.16,87.728,594.06,87.728,589.56z M366.528,982.56 c-7.5,4.1-16.1,6.3-24.9,6.3l-219.6-1.2c-10.3,0-20.3-2.9-29.7-8.6c-14.2-12.1-22-30.5-20.9-49.4c0-0.1,0-0.3,0-0.4v-232.7 c0-0.4,0-0.7-0.1-1.1c-0.9-6,0.6-12.9,3.9-18.5c2.2-3.2,4.6-6.5,6.9-9.7c12.2-17,24.8-34.5,28.3-52.7c0.1-0.5,0.1-0.9,0.1-1.4 h242.4c0,0.3,0,0.5,0,0.8c2.1,18.9,14,34.5,25.4,49.5c3.5,4.6,6.8,9,9.8,13.4c2.4,4.1,3.9,11.9,3.9,20.8v231.5l0.1,0 C392.128,951.16,382.828,970.66,366.528,982.56z"></path><path d="M366.828,805.96c-4.1,0-7.5,3.4-7.5,7.5v94.6c0,17.8-5.6,35.2-16.3,50.4c-2.4,3.3-1.6,8,1.8,10.4c1.3,1,2.8,1.4,4.3,1.4 v0c2.4,0,4.7-1.1,6.2-3.1c12.4-17.8,19-38.2,19-59.1v-94.6C374.328,809.36,370.928,805.96,366.828,805.96z"></path></g></g></g></svg>